# xmcd CD database file
#
# Track frame offsets:
#	182
#	12002
#	26527
#	38092
#	50430
#	60347
#	73650
#	85587
#	98857
#	110907
#	123365
#	134482
#	148585
#	163207
#	175337
#	187585
#	202790
#	214695
#
# Disc length: 3060 seconds
#
# Revision: 1
# Processed by: cddbd v1.5.1PL0 Copyright (c) Steve Scherf et al.
# Submitted via: CDex 1.51
#
DISCID=f10bf212
DTITLE=Mills Brothers - Basin Street Blues - four guys and a guitar
DYEAR=1900
DGENRE=Jazz
TTITLE0=Basin Street Blues
TTITLE1=I´ve Got My Love To Keep Me Warm
TTITLE2=I Wish I Had A Brand New Heart
TTITLE3=This One Today - That One Tomorrow
TTITLE4=I Wish I Could Afford To Live The Life I´m Livin´
TTITLE5=Someday
TTITLE6=Mañana
TTITLE7=Gloria
TTITLE8=Small Town Girl
TTITLE9=Nevertheless
TTITLE10=I Don´t Mind Beeing All Alone
TTITLE11=I Want You To Want Me
TTITLE12=I´m Afraid To Love You
TTITLE13=Who´ll Be The Next One
TTITLE14=If You Didn´t Cry
TTITLE15=On A Chinese Honeymoon
TTITLE16=I Cried Like A Baby
TTITLE17=I Gotta Have My Baby Back
EXTD=
EXTT0=
EXTT1=
EXTT2=
EXTT3=
EXTT4=
EXTT5=
EXTT6=
EXTT7=
EXTT8=
EXTT9=
EXTT10=
EXTT11=
EXTT12=
EXTT13=
EXTT14=
EXTT15=
EXTT16=
EXTT17=
PLAYORDER=
